PathFileType	4	(X/Y/Z)	Patient4_TMGait_0pt5_02_right_32.trc.trc
DataRate	CameraRate	NumFrames	NumMarkers	Units	OrigDataRate	OrigDataStartFrame	OrigNumFrames
75.268817204301	75.268817204301	4	33	mm	75.268817204301	36	       141
Frame#	Time	Sacral			L.Shoulder			Chest			R.Shoulder			Neck			R.ASIS			L.ASIS			R.Thigh.Superior			R.Thigh.Lateral			R.Thigh.Inferior			R.Patella			L.Thigh.Superior			L.Thigh.Lateral			L.Thigh.Inferior			L.Patella			L.Shank.Superior			L.Shank.Lateral			L.Shank.Inferior			R.Shank.Superior			R.Shank.Lateral			R.Shank.Inferior			R.Heel			R.Midfoot.Superior			R.Midfoot.Lateral			R.Toe			L.Heel			L.Midfoot.Lateral			L.Midfoot.Superior			L.Toe			L.Elbow			L.Wrist			R.Elbow			R.Wrist			
		X1	Y1	Z1	X2	Y2	Z2	X3	Y3	Z3	X4	Y4	Z4	X5	Y5	Z5	X6	Y6	Z6	X7	Y7	Z7	X8	Y8	Z8	X9	Y9	Z9	X10	Y10	Z10	X11	Y11	Z11	X12	Y12	Z12	X13	Y13	Z13	X14	Y14	Z14	X15	Y15	Z15	X16	Y16	Z16	X17	Y17	Z17	X18	Y18	Z18	X19	Y19	Z19	X20	Y20	Z20	X21	Y21	Z21	X22	Y22	Z22	X23	Y23	Z23	X24	Y24	Z24	X25	Y25	Z25	X26	Y26	Z26	X27	Y27	Z27	X28	Y28	Z28	X29	Y29	Z29	X30	Y30	Z30	X31	Y31	Z31	X32	Y32	Z32	X33	Y33	Z33	

36	42.285000000000	734.029365051385	1006.153833230822	487.097932986133	926.202873062582	1433.064328568490	320.713674553605	1014.657240326809	1361.538842408623	489.290220769133	917.380996251906	1436.104888415863	656.870708396620	912.252192909143	1493.283522010488	472.694090300541	955.684976814918	936.412109228085	616.093782002975	955.374430636374	961.917331232663	342.285954831901	1018.210713510510	748.259038384974	580.036426898163	949.023244783377	633.392740475195	638.440571222018	1032.055658778499	589.510680868712	557.648701115814	1043.034698926065	500.503962654965	563.747797463487	977.530814696506	737.053829989092	364.806687647634	879.417201341279	631.069908515396	298.498032578517	952.705302360563	540.440476761230	359.869899533755	940.712620847784	458.749684965621	358.911184319535	880.108799023875	399.910256506242	351.702297397206	748.901604449676	337.865257133949	297.726636595115	747.460775267086	210.944370881258	359.621036746874	1021.591355176743	410.317950075836	572.276797065245	958.765710522241	302.121279513097	635.194962384447	1007.608531561278	210.247291127685	572.776408676105	884.260158086191	42.304752588498	544.793658699336	1053.926375353962	98.894687261991	577.685572109554	968.523523505134	37.029731858987	618.579008743129	1175.667687140156	49.268026858003	604.668570714540	566.161991724979	114.071262356965	392.682036506361	636.342061983795	77.315154318019	319.434658971552	734.204607152144	109.704887069183	344.719978561121	835.350890026128	34.295215039650	330.915875827072	886.155940941802	1085.266830659395	192.258650656678	1089.675890929289	923.717785144580	187.384651231970	818.826236706949	1104.247917955416	771.277095730732	900.145771498526	855.696783751711	769.295994292953	
37	42.298285714286	734.548644766901	1006.607623150975	490.758915512842	924.883956116705	1434.346998046111	324.130101707329	1014.702010442513	1362.302989831173	491.826877044074	918.647543452210	1436.161165465420	660.418553876475	911.922132034293	1493.983478633302	476.461044069054	956.862063353422	937.220606809649	618.389674083581	955.024956924592	962.476332876267	344.652466526382	1017.439034731393	747.343639234269	583.232816960932	946.707484248972	633.279628601699	640.717349150430	1029.470082099808	588.799923820342	559.949309824887	1039.496156382886	499.774611378994	565.433712220624	982.604088456255	739.294467392106	367.305173837469	888.716009035221	630.822668607355	300.357181720100	965.064386851192	541.654575249954	361.424701150669	953.982353670736	458.546871707061	359.589874720672	890.976404447158	400.065699178978	352.411285965370	757.317406763050	343.382675591453	298.553785532149	751.545109488355	216.145326209946	359.203730437688	1017.422118137280	409.784631330077	573.694650899460	953.882478473963	301.804701467356	636.159082424476	1001.959254451321	209.829887191643	573.357138201593	877.686700839011	42.272441531329	544.891823345657	1047.400278899488	98.756749962589	577.883690304361	961.920140861700	36.986526028959	618.708610075700	1169.118491070445	49.045070798920	604.855643241007	566.606643267276	128.819483460654	391.735006394478	634.392357817686	87.357318203171	318.826614473962	733.942755772548	113.821564343477	343.897901074474	829.222094185019	33.208963125179	330.951534544355	881.266674688287	1086.259709119452	197.337902298908	1078.713665225927	916.645233934415	194.136768205985	827.100231320105	1102.002161375959	775.513899715595	920.527700921738	857.871516609114	771.835369047707	
38	42.311571428571	734.894936197971	1006.910333788615	494.411072494229	923.265912661401	1435.343531791745	327.342227554210	1014.631458737134	1362.862291016187	494.092570495432	919.946909846983	1436.061032498878	663.751102699503	911.481523376871	1494.489956975936	480.001390083649	957.863666174503	937.864274842917	620.624093657040	954.486933962988	962.775298022576	346.964864617266	1016.543985002440	746.374774501937	586.449624346984	944.353395496632	633.085773564643	643.016638395038	1026.852522869798	588.048046900519	562.288591554620	1035.958201710252	499.016571810801	567.199837109713	987.612330923754	741.713938426222	369.862887635808	898.200969757238	630.843255957441	302.145589410280	977.482794618536	543.312911155689	363.072596228071	967.476023437597	458.860358276018	360.501436492683	902.288896646046	400.635517108472	353.221785932396	766.494850124414	349.261105279913	299.339088220400	756.394516612917	221.909457459260	358.885524706405	1013.252020006715	409.195479955274	575.145415349718	949.019559041695	301.425018064380	637.157809454783	996.307934961503	209.359158758175	573.943918069253	871.055358912295	42.256151609216	544.983430537826	1040.857153728405	98.552246673202	578.070211190321	955.261813610808	36.926264113994	618.834154468311	1162.542848183162	48.650595856057	605.023949709301	568.225364655058	144.413688154822	390.721825310314	633.433700940163	98.392312027023	318.161583557170	734.399788541132	118.679557197105	343.205026798125	823.524705444810	32.145322699248	330.995609171571	876.368560480341	1086.957742886275	202.220208079093	1067.126924527043	909.242330894701	200.824564817102	835.745240580080	1099.843319097976	779.779670560119	941.308460262812	860.839003960158	774.177800910003	
39	42.324857142857	735.073593105105	1007.077073201257	498.028283046483	921.395678448807	1436.074725049713	330.335344581481	1014.444462731954	1363.236644223777	496.090797096931	921.247627470155	1435.839640279928	666.838369624012	910.953192065302	1494.831842711816	483.287236640987	958.688295473178	938.359175888938	622.806057692178	953.753052348275	962.852541543010	349.220097888014	1015.586378413195	745.428127268593	589.565760968171	942.081281739553	632.849416357535	645.289260231239	1024.291750043370	587.290117453810	564.586488882128	1032.502999212440	498.244948627036	568.982846358794	992.435085253552	744.343486060983	372.493420301200	907.682390436926	631.216362120763	303.864764979378	989.724543021548	545.483674582258	364.814067609009	980.975790593339	459.764717248782	361.612263381193	913.856880881932	401.678093828129	354.115893384977	776.252320260247	355.421448342826	300.084953846745	761.947342671373	228.123332341412	358.680846983421	1009.155076614972	408.567856195918	576.585051862045	944.250372105839	301.017231970538	638.180737114035	990.697433738612	208.855208205030	574.521129709076	864.387699289337	42.260192984901	545.079068672970	1034.310425742881	98.313203034934	578.248321273060	948.572434719666	36.862211703876	618.962331824021	1155.955932184888	48.138074090826	605.179464536559	571.018716186242	160.371268018712	389.689657024158	633.588759976222	110.087851123347	317.471943519667	735.662788436435	124.204240483915	342.661172541162	818.565468986048	31.226654180601	331.049184248428	871.482378889357	1087.361978743211	206.953173367577	1054.881262110748	901.558435711177	207.393879213134	844.780823648280	1097.797228457749	783.999719200384	962.389068665047	864.644509931761	776.277134971585	
